<svg version="1.2" xmlns="http://www.w3.org/2000/svg" viewBox="0 0 1440 320" width="1440" height="320">
	<title>wave-svg</title>
	<style>
		.s0 { fill: #0099ff } 
	</style>
	<path id="Layer" class="s0" d="m0 215l34.3 5.8c34.3 5.9 102.7 17.5 171.7 19.5 68.3 2 137-6 205-11.7 69-5.9 138-9.6 206 3.9 68.7 13.5 137 44.8 206 48.6 68.4 3.9 137-19.4 206-21.4 68.1-2 137 17.6 205 21.4 68.9 3.9 137-7.8 172-13.6l34-5.8v58.3h-34.3c-34.3 0-102.7 0-171.7 0-68.3 0-137 0-205 0-69 0-138 0-206 0-68.7 0-137 0-206 0-68.4 0-137 0-206 0-68.1 0-137 0-205 0-68.9 0-137 0-172 0h-34z"/>
</svg>