<svg xmlns="http://www.w3.org/2000/svg" viewBox="0 0 1440 320"><path fill="#0099ff" fill-opacity="1" d="M0,32L34.3,48C68.6,64,137,96,206,101.3C274.3,107,343,85,411,69.3C480,53,549,43,617,80C685.7,117,754,203,823,213.3C891.4,224,960,160,1029,154.7C1097.1,149,1166,203,1234,213.3C1302.9,224,1371,192,1406,176L1440,160L1440,320L1405.7,320C1371.4,320,1303,320,1234,320C1165.7,320,1097,320,1029,320C960,320,891,320,823,320C754.3,320,686,320,617,320C548.6,320,480,320,411,320C342.9,320,274,320,206,320C137.1,320,69,320,34,320L0,320Z"></path></svg>